HIERARCHY
ROOT pelvis
{
  OFFSET 0 100 0
  CHANNELS 6 Xposition Yposition Zposition Zrotation Xrotation Yrotation
  JOINT pelvis_right_femur
  {
    OFFSET -10.78128 -3.44521 -0.5502486
    CHANNELS 3 Zrotation Xrotation Yrotation
    JOINT right_femur_tibia
    {
      OFFSET -0.8047443 -44.0398 -0.1307829
      CHANNELS 3 Zrotation Xrotation Yrotation
      JOINT right_tibia_foot
      {
        OFFSET 3.006224 -47.83518 -5
        CHANNELS 3 Zrotation Xrotation Yrotation
        End Site
        {
          OFFSET 0 -5 15
        }
      }
    }
  }
  JOINT pelvis_left_femur
  {
    OFFSET 10.78128 -3.44521 -0.5502486
    CHANNELS 3 Zrotation Xrotation Yrotation
    JOINT left_femur_tibia
    {
      OFFSET 0.8047443 -44.0398 -0.1307829
      CHANNELS 3 Zrotation Xrotation Yrotation
      JOINT left_tibia_foot
      {
        OFFSET -4.370144 -48.10324 -4.275266
        CHANNELS 3 Zrotation Xrotation Yrotation
        End Site
        {
          OFFSET 0 -5 15
        }
      }
    }
  }
  JOINT pelvis_spine1
  {
    OFFSET 0 6.468898 -3.129235
    CHANNELS 3 Zrotation Xrotation Yrotation
    JOINT spine1
    {
      OFFSET 0 23.15396 4.99043
      CHANNELS 3 Zrotation Xrotation Yrotation
      JOINT spine2
      {
        OFFSET 0 20.79997 -5.064912
        CHANNELS 3 Zrotation Xrotation Yrotation
        JOINT neck
        {
          OFFSET 0 14.38658 9.616178
          CHANNELS 3 Zrotation Xrotation Yrotation
          End Site
          {
            OFFSET 0 20 0
          }
        }
      }
      JOINT right_manubrium
      {
        OFFSET -5.722621 16.35077 3.967754
        CHANNELS 3 Zrotation Xrotation Yrotation
        JOINT right_clavicle
        {
          OFFSET -13.16364 1.694482 -4.693211
          CHANNELS 3 Zrotation Xrotation Yrotation
          JOINT right_humerus
          {
            OFFSET -28.5034 -0.3100689 -2.792744
            CHANNELS 3 Zrotation Xrotation Yrotation
            JOINT right_radius
            {
              OFFSET -25.15693 0.02248979 -1.271978
              CHANNELS 3 Zrotation Xrotation Yrotation
              End Site
              {
                OFFSET -15 0 0
              }
            }
          }
        }
      }
      JOINT left_manubrium
      {
        OFFSET 5.722621 16.35077 3.967754
        CHANNELS 3 Zrotation Xrotation Yrotation
        JOINT left_clavicle
        {
          OFFSET 13.16364 1.694482 -4.693211
          CHANNELS 3 Zrotation Xrotation Yrotation
          JOINT left_humerus
          {
            OFFSET 29.39168 -1.063119 -2.237045
            CHANNELS 3 Zrotation Xrotation Yrotation
            JOINT left_radius
            {
              OFFSET 24.59957 -0.9528479 0.9047498
              CHANNELS 3 Zrotation Xrotation Yrotation
              End Site
              {
                OFFSET 15 -0 -0
              }
            }
          }
        }
      }
    }
  }
}
MOTION
Frames: 21
Frame Time: 0.0416666666667
0 103.5113 0 3.21261 0.7864303 0.1016269 2.705825 -15.82637 10.70424 -0 36.62062 -0 -2.907656 -18.84316 -2.304141 -9.878408 9.373531 -22.63836 -0 3.683784 -0 22.44626 -9.509805 29.45718 -3.585271 -2.765008 5.383635 2.319596 10.66794 -6.989408 1.980468 21.91315 5.871608 2.413947 -25.87567 10.15603 5.597491 -20.8505 11.07488 86.87478 39.21596 -18.08935 -0 0 14.93352 -6.525422 7.986248 4.743804 4.937668 -19.36692 -2.959985 -91.36584 22.76198 20.5678 0 0 -17.94592 15.86468 13.33006 -2.885527
0.4137899 103.6524 1.53579 2.310247 1.604182 0.1436966 4.309464 -19.05488 11.74858 -0 36.75057 -0 -3.10329 -18.03706 -2.352152 -9.380453 9.536026 -22.56513 -0 4.293757 -0 22.09089 -10.24893 30.26991 -3.609073 -2.660776 5.306758 2.425371 10.63895 -7.022059 1.906561 21.91176 5.995557 2.36876 -25.94326 10.24974 5.533844 -20.8176 11.14784 87.02896 39.4311 -18.22241 -0 0 14.61802 -6.317967 7.930921 4.870788 4.843123 -19.36505 -3.054659 -90.94405 22.73971 20.24641 0 0 -18.97488 15.94953 12.8412 -2.933816
0.7556577 102.7338 4.284372 1.286554 -0.6950611 0.3031323 2.259952 -23.97411 -0.1952281 -0 22.06832 -0 -8.698263 -6.894803 0.5432978 -7.533804 11.71701 -18.33463 -0 4.535946 -0 12.51366 -17.47131 22.47897 -1.989157 -1.492009 4.902144 1.707779 10.66048 -6.247098 1.921071 21.95926 6.001387 3.033456 -24.21321 9.343641 5.746275 -18.40474 11.05426 86.90946 38.441 -17.79401 -0 0 12.36205 -9.140085 9.075086 5.623895 5.085982 -19.31997 -3.013508 -90.78356 21.2663 19.54247 0 0 -15.1879 14.26515 13.00532 -1.815832
1.083155 102.078 7.193278 0.7921887 0.7201964 0.3594952 3.649696 -27.31049 1.994255 -0 22.23504 -0 -7.746587 -6.766408 0.2631367 -7.44786 12.0098 -18.41682 -0 5.117797 -0 13.4699 -17.67287 23.4201 -2.215585 -1.973941 5.084638 1.873175 10.64222 -6.51299 1.990389 21.84905 5.812956 2.873972 -24.7164 9.421992 5.790829 -18.93097 10.97179 86.69615 37.93675 -18.01108 -0 0 13.35858 -8.569749 8.94377 5.136815 5.228126 -19.46677 -2.724127 -91.65868 21.97944 20.38682 0 0 -14.63371 14.03707 13.80902 -1.416523
1.421597 101.6489 10.05056 0.1501323 2.313212 0.4272977 6.054407 -29.83592 6.277388 -0 24.48657 -0 -6.434659 -8.173378 -0.4264073 -7.354935 11.78108 -19.4146 -0 6.092737 -0 15.07187 -17.11513 25.79708 -2.396143 -2.336524 5.204286 1.906975 10.60173 -6.672584 2.048648 21.76078 5.744632 2.853265 -24.98818 9.488645 5.829844 -19.29428 10.89765 86.51364 37.63108 -18.04812 -0 0 14.12838 -8.365516 8.888843 4.80786 5.471722 -19.61354 -2.426505 -92.24735 22.2537 20.85433 0 0 -14.03671 14.07764 14.47945 -1.448881
1.748362 101.1027 13.29416 -0.279713 2.864517 0.6145195 6.905471 -32.29768 6.43411 -0 21.86885 -0 -6.614962 -6.481871 -0.2489527 -7.017097 12.3629 -18.8063 -0 7.31112 -0 14.05609 -18.00253 25.17967 -2.292058 -2.434679 5.208588 1.86674 10.52873 -6.717446 2.052882 21.66699 5.772254 2.94647 -24.98034 9.433706 5.861529 -19.19271 10.85017 86.36453 37.20704 -18.06255 -0 0 14.35254 -8.616202 9.017771 4.711521 5.752245 -19.78603 -2.11384 -92.57872 22.23031 21.00287 0 0 -13.29535 13.8115 14.91255 -1.282371
2.040448 100.4412 17.1156 -0.5526425 3.091474 0.9993231 7.004677 -34.21255 5.214114 -0 17.8853 -0 -7.06066 -4.090201 -0.003788534 -6.609731 13.47909 -17.584 -0 8.994039 -0 11.62073 -19.27617 23.08701 -2.224238 -2.553187 5.201743 1.81303 10.42503 -6.769963 2.039769 21.5569 5.873439 3.085669 -24.98062 9.413251 5.876507 -19.11549 10.81016 86.21249 36.83397 -18.03485 -0 0 14.61684 -8.938677 9.143806 4.642352 6.113265 -19.99579 -1.731272 -92.85007 22.06928 21.06358 0 0 -12.58435 13.69017 15.33076 -1.328528
2.285818 99.80616 21.50517 -0.8779452 3.317327 1.616364 7.129595 -35.13005 4.401516 -0 14.86095 -0 -7.241192 -2.462284 -0.2144521 -6.081236 14.66138 -16.48789 -0 11.34995 -0 8.062924 -20.36036 20.50017 -2.194284 -2.699898 5.183627 1.776338 10.29832 -6.85045 2.006944 21.43055 6.031024 3.245582 -25.00725 9.423498 5.877161 -19.06869 10.78613 86.06635 36.4786 -18.01668 -0 0 14.91044 -9.268402 9.254639 4.582512 6.525785 -20.23771 -1.299565 -93.08579 21.83799 21.08101 0 0 -11.96336 13.65172 15.7282 -1.495969
2.467092 99.26708 26.52168 -1.187649 3.421344 2.43453 6.863595 -35.00078 3.278362 -0 12.13632 -0 -6.99282 -0.9715933 -0.9022107 -5.391307 15.96206 -15.06479 -0 14.47609 -0 2.79534 -21.13483 16.61001 -2.182179 -2.83443 5.141713 1.730199 10.13965 -6.92469 1.944025 21.29978 6.268606 3.456293 -25.00266 9.445304 5.853865 -19.00509 10.78252 85.91127 36.15397 -17.93741 -0 0 15.18573 -9.724164 9.359239 4.595943 6.988745 -20.49505 -0.8192518 -93.24859 21.43314 21.02 0 0 -11.32221 13.70148 16.06664 -1.831335
2.583166 98.95337 32.25653 -1.548916 3.426112 3.334704 6.51998 -33.6314 2.473111 -0 10.43096 -0 -5.947743 0.3536933 -2.160694 -4.490822 17.04319 -13.28399 -0 19.04 -0 -3.629894 -20.51622 11.83231 -2.198315 -2.972875 5.080443 1.696249 9.95256 -7.010917 1.847268 21.16485 6.575369 3.701444 -24.9774 9.474065 5.807672 -18.94449 10.80568 85.74682 35.82755 -17.82863 -0 0 15.46361 -10.25877 9.440495 4.665886 7.484362 -20.7667 -0.3015174 -93.37359 20.90341 20.93506 0 0 -10.68453 13.79448 16.3568 -2.271627
2.690315 99.10136 38.68823 -2.186196 3.499628 4.060895 6.833944 -30.84313 3.152478 -0 11.27485 -0 -4.21146 0.9611469 -3.583013 -3.340199 16.82135 -11.59378 -0 26.00219 -0 -9.107023 -17.02987 7.871972 -2.258843 -3.117534 5.004361 1.673561 9.740104 -7.106276 1.712833 21.03477 6.949855 3.984677 -24.91267 9.498199 5.735554 -18.90666 10.86095 85.56672 35.50318 -17.66714 -0 0 15.76379 -10.88268 9.476285 4.802324 7.992248 -21.03906 0.2308071 -93.47199 20.22564 20.85948 0 0 -10.00842 13.93896 16.59712 -2.830395
2.9201 99.90903 45.45031 -3.139843 3.950614 4.293782 8.072527 -27.13472 5.254515 -0 14.42907 -0 -3.300373 0.2355676 -3.758516 -2.284575 13.68871 -10.64264 -0 35.50218 -0 -10.62403 -10.63932 6.427721 -2.363856 -3.265593 4.918609 1.66836 9.508291 -7.212579 1.534145 20.91515 7.384051 4.302194 -24.78623 9.497455 5.636361 -18.8985 10.95508 85.37003 35.15755 -17.45646 -0 0 16.09077 -11.58625 9.44965 5.007251 8.485327 -21.30712 0.7491417 -93.56094 19.40769 20.84008 0 0 -9.281818 14.09553 16.78221 -3.458594
3.273894 101.1721 51.95332 -3.516125 3.870544 3.936663 9.043748 -23.1129 6.236416 -0 16.22667 -0 -5.205587 -2.171284 -2.562834 -2.163779 8.575253 -10.31434 -0 45.63086 -0 -8.20507 -5.345685 7.147 -2.520506 -3.419483 4.831233 1.685649 9.260466 -7.335 1.298201 20.8085 7.879801 4.661849 -24.5644 9.443562 5.505266 -18.93799 11.09928 85.15155 34.75685 -17.1901 -0 0 16.46863 -12.37498 9.334157 5.284655 8.94387 -21.57685 1.226364 -93.66126 18.42332 20.93603 0 0 -8.468822 14.23744 16.91229 -4.130702
3.500228 102.3347 58.27109 -2.306828 0.1034338 3.072998 8.156551 -16.96043 5.813406 -0 16.63467 -0 -6.002833 -4.833093 -3.624004 -2.532726 5.654137 -9.211519 -0 54.12324 -0 -7.029245 -4.393971 9.869927 -2.727311 -3.561542 4.757755 1.722811 9.0078 -7.462815 0.986973 20.72602 8.430845 5.072155 -24.18148 9.286066 5.330902 -19.04491 11.3072 84.90527 34.2661 -16.83531 -0 0 16.91415 -13.26629 9.092735 5.654994 9.316574 -21.84729 1.59638 -93.78326 17.22883 21.22977 0 0 -7.524539 14.3208 16.96047 -4.795948
3.604586 103.4303 64.57049 -0.733936 -4.743013 2.208573 6.539629 -9.409396 6.180697 -0 17.20525 -0 -3.591863 -6.364858 -5.469325 -2.598304 2.407606 -7.647754 -0 59.00583 -0 -7.87029 -4.922175 13.30701 -2.963291 -3.669172 4.726873 1.786258 8.773875 -7.587306 0.568881 20.67601 9.023823 5.531684 -23.54586 8.952011 5.096809 -19.24697 11.6009 84.63142 33.60798 -16.37888 -0 0 17.44682 -14.25325 8.690197 6.1347 9.529926 -22.13651 1.765085 -93.94563 15.79139 21.86402 0 0 -6.448121 14.25105 16.87503 -5.332222
3.694072 104.638 70.60353 0.1928518 -6.84068 1.443908 5.417364 -3.271308 6.084231 -0 16.12267 -0 -2.306073 -7.605749 -5.36241 -2.427629 -3.588049 -6.748249 -0 60.42679 -0 -8.270488 -5.347104 15.14967 -3.165851 -3.747077 4.786909 1.934279 8.605597 -7.73578 -0.04864045 20.65133 9.6724 6.007418 -22.49464 8.34134 4.785436 -19.58687 12.04819 84.34426 32.58382 -15.90791 -0 0 18.08746 -15.27427 8.129049 6.7498 9.485345 -22.5188 1.632403 -94.20328 14.08332 23.17214 0 0 -5.373906 13.81366 16.52502 -5.477853
3.786732 105.6332 76.30599 0.6977041 -7.145649 0.7062635 4.736377 1.36078 5.106125 -0 13.80118 -0 -2.723222 -9.00144 -4.159323 -1.963581 -10.32116 -6.210352 -0 58.3505 -0 -7.714151 -5.772551 15.97584 -3.230932 -3.801978 5.053223 2.19534 8.658043 -7.876243 -0.9374049 20.67971 10.27275 6.375107 -20.80315 7.343622 4.419265 -20.21275 12.69816 84.08278 31.10957 -15.46821 -0 0 18.8844 -16.17144 7.51402 7.542008 8.912543 -22.99328 0.9186928 -94.60299 12.17562 25.6734 0 0 -4.527424 12.84642 15.67198 -4.90451
3.889669 106.1017 81.77354 0.8933772 -7.022828 -0.01196088 4.471557 5.203517 3.906536 -0 11.41119 -0 -3.768124 -10.53469 -2.922185 -0.9997709 -16.06679 -5.512577 -0 52.30936 -0 -6.490953 -6.127164 16.8193 -3.077277 -3.78813 5.623053 2.381746 9.112988 -7.818629 -1.858642 20.78825 10.46659 6.499623 -18.67075 6.049052 4.078447 -21.29973 13.35132 83.87894 29.57226 -14.82169 -0 0 19.94603 -16.83708 7.120058 8.431801 7.649653 -23.37368 -0.631572 -95.06486 10.38873 29.18822 0 0 -3.931855 11.67194 14.35129 -3.670446
4.032503 105.9432 87.11577 0.7194744 -6.924348 -0.74437 4.635928 8.563137 3.131261 -0 9.750399 -0 -4.511809 -12.11388 -2.10433 0.4158072 -20.1588 -4.508733 -0 43.31576 -0 -5.220309 -6.187626 17.84518 -2.738893 -3.67442 6.331541 2.303315 9.848296 -7.480394 -2.429286 20.88857 10.12775 6.422536 -16.85565 4.854853 3.793058 -22.6494 13.71787 83.72376 28.37692 -13.83245 -0 0 21.22076 -17.41256 7.172831 9.21494 6.201983 -23.55908 -2.541913 -95.43705 9.045497 32.44506 0 0 -3.412829 10.80228 13.06394 -2.34047
4.245836 105.2489 92.42753 0.2317227 -6.672309 -1.502032 5.035236 11.51283 2.714094 -0 9.000683 -0 -4.89321 -13.78334 -1.610004 1.927778 -22.99267 -3.409282 -0 33.12667 -0 -4.171383 -5.96417 18.67959 -2.368112 -3.513835 6.917776 2.06324 10.56367 -7.065159 -2.603702 20.90143 9.563669 6.2977 -15.7899 4.024416 3.55037 -23.81867 13.80571 83.64484 27.53599 -12.86334 -0 0 22.38123 -17.92887 7.506962 9.702987 5.155829 -23.68016 -4.11312 -95.66804 8.186811 34.53799 0 0 -2.974706 10.36529 12.21165 -1.381126
4.543831 104.2344 97.82172 -0.3922645 -6.081761 -2.25805 5.369198 13.93662 2.210932 -0 9.145159 -0 -5.382918 -15.42348 -1.203966 3.099463 -24.89347 -2.605781 -0 23.61506 -0 -3.245846 -5.555031 18.99263 -2.081505 -3.385215 7.312511 1.872426 11.10746 -6.793322 -2.613427 20.84511 9.081774 6.216338 -15.27165 3.492355 3.36552 -24.61441 13.80995 83.66207 26.89995 -12.2871 -0 0 23.19155 -18.23342 7.821327 9.871278 4.562231 -23.86397 -5.168941 -95.81017 7.654561 35.67561 0 0 -2.760121 10.17949 11.75242 -0.8034731
